<svg width="16" height="17" viewBox="0 0 16 17" fill="none" xmlns="http://www.w3.org/2000/svg">
<path fill-rule="evenodd" clip-rule="evenodd" d="M2.66341 8.18787C2.66341 5.61054 4.75275 3.5212 7.33008 3.5212C9.90741 3.5212 11.9967 5.61054 11.9967 8.18787C11.9967 9.44514 11.4995 10.5863 10.691 11.4254C10.6682 11.443 10.6462 11.4622 10.6253 11.4831C10.6044 11.5041 10.5852 11.526 10.5676 11.5489C9.72847 12.3573 8.58734 12.8545 7.33008 12.8545C4.75275 12.8545 2.66341 10.7652 2.66341 8.18787ZM11.0752 12.8758C10.0487 13.6969 8.74675 14.1879 7.33008 14.1879C4.01637 14.1879 1.33008 11.5016 1.33008 8.18787C1.33008 4.87416 4.01637 2.18787 7.33008 2.18787C10.6438 2.18787 13.3301 4.87416 13.3301 8.18787C13.3301 9.60455 12.8391 10.9066 12.018 11.933L14.4681 14.3831C14.7285 14.6435 14.7285 15.0656 14.4681 15.3259C14.2078 15.5863 13.7857 15.5863 13.5253 15.3259L11.0752 12.8758Z" fill="#2D3440"/>
</svg>
